<svg width="577" height="578" viewBox="0 0 577 578" fill="none" xmlns="http://www.w3.org/2000/svg">
<g opacity="0.2" clip-path="url(#clip0_2541_4340)">
<path d="M485.501 280.397L485.401 280.437L451.121 349.016L382.643 383.256L382.542 383.296L348.263 451.874L279.784 486.114L279.684 486.154L245.405 554.733L199.365 577.753H200.747L245.765 555.234L245.866 555.193L280.145 486.615L348.624 452.375L348.724 452.335L383.003 383.756L451.482 349.517L451.582 349.477L485.862 280.898L554.34 246.659L554.44 246.619L576.999 201.501V200.118L553.98 246.158L485.501 280.397ZM476.926 271.822L476.826 271.863L442.546 340.441L374.068 374.681L373.968 374.721L339.688 443.3L271.21 477.539L271.109 477.579L236.83 546.158L173.66 577.753H175.043L237.211 546.679L237.311 546.639L271.59 478.06L340.069 443.821L340.169 443.78L374.448 375.202L442.927 340.962L443.027 340.922L477.307 272.343L545.785 238.104L545.885 238.064L577.019 175.796V174.414L545.425 237.603L476.946 271.843L476.926 271.822ZM511.125 100.445L476.846 169.024L408.367 203.264L408.267 203.304L373.988 271.883L305.509 306.122L305.409 306.162L271.129 374.741L202.651 408.98L202.551 409.02L168.271 477.599L99.7925 511.838L99.6923 511.878L66.7552 577.753H67.4364L100.133 512.339L168.612 478.1L168.712 478.06L202.991 409.481L271.47 375.242L271.57 375.202L305.85 306.623L374.328 272.383L374.428 272.343L408.708 203.765L477.186 169.525L477.287 169.485L511.566 100.906L576.979 68.1896V67.5084L511.185 100.405L511.085 100.445H511.125ZM519.7 109.02L485.421 177.599L416.942 211.839L416.842 211.879L382.563 280.457L314.084 314.697L313.984 314.737L279.704 383.316L211.226 417.555L211.125 417.595L176.846 486.174L108.367 520.413L108.267 520.453L79.6175 577.753H80.2987L108.728 520.914L177.207 486.675L177.307 486.635L211.586 418.056L280.065 383.817L280.165 383.776L314.444 315.198L382.923 280.958L383.023 280.918L417.303 212.339L485.781 178.1L485.882 178.06L520.161 109.481L576.999 81.0519V80.3707L519.78 108.98L519.68 109.02H519.7ZM562.554 357.591L528.275 426.17L459.796 460.409L459.696 460.449L425.417 529.028L356.938 563.267L356.838 563.308L349.605 577.753H350.287L357.279 563.768L425.757 529.529L425.858 529.489L460.137 460.91L528.616 426.671L528.716 426.631L562.995 358.052L576.979 351.06V350.379L562.615 357.551L562.514 357.591H562.554ZM571.129 366.166L536.85 434.745L468.371 468.984L468.271 469.024L433.992 537.603L365.513 571.842L365.413 571.882L362.468 577.753H363.149L365.854 572.343L434.332 538.104L434.432 538.064L468.712 469.485L537.19 435.246L537.291 435.206L571.57 366.627L576.979 363.922V363.241L571.189 366.126L571.089 366.166H571.129ZM502.651 297.547L502.55 297.587L468.271 366.166L399.792 400.405L399.692 400.445L365.413 469.024L296.934 503.264L296.834 503.304L262.555 571.882L250.794 577.753H252.177L262.915 572.383L263.015 572.343L297.295 503.764L365.773 469.525L365.874 469.485L400.153 400.906L468.632 366.667L468.732 366.627L503.011 298.048L571.49 263.809L571.59 263.769L576.999 252.93V251.547L571.129 263.308L502.651 297.547ZM494.076 288.972L493.976 289.012L459.696 357.591L391.217 391.83L391.117 391.871L356.838 460.449L288.359 494.689L288.259 494.729L253.98 563.288L225.09 577.733H226.472L254.36 563.788L254.46 563.748L288.74 495.17L357.219 460.93L357.319 460.89L391.598 392.311L460.077 358.072L460.177 358.032L494.456 289.453L562.935 255.214L563.035 255.174L577.019 227.205V225.823L562.574 254.713L494.096 288.952L494.076 288.972ZM553.98 143.3L519.7 211.879L451.221 246.118L451.121 246.158L416.842 314.737L348.363 348.976L348.263 349.016L313.984 417.595L245.505 451.834L245.405 451.874L211.125 520.453L142.647 554.693L142.547 554.733L131.027 577.753H131.708L142.987 555.193L211.466 520.954L211.566 520.914L245.846 452.335L314.324 418.096L314.424 418.056L348.704 349.477L417.182 315.238L417.283 315.198L451.562 246.619L520.041 212.379L520.141 212.339L554.42 143.761L576.979 132.481V131.8L554.06 143.26L553.959 143.3H553.98ZM571.129 160.449L536.85 229.028L468.371 263.268L468.271 263.308L433.992 331.887L365.513 366.126L365.413 366.166L331.133 434.745L262.655 468.984L262.555 469.024L228.275 537.603L159.796 571.842L159.696 571.882L156.751 577.753H157.432L160.137 572.343L228.616 538.104L228.716 538.064L262.995 469.485L331.474 435.246L331.574 435.206L365.854 366.627L434.332 332.387L434.432 332.347L468.712 263.769L537.19 229.529L537.291 229.489L571.57 160.91L576.979 158.206V157.524L571.189 160.409L571.089 160.449H571.129ZM562.554 151.875L528.275 220.453L459.796 254.693L459.696 254.733L425.417 323.312L356.938 357.551L356.838 357.591L322.559 426.17L254.08 460.409L253.98 460.449L219.7 529.028L151.222 563.267L151.121 563.308L143.889 577.753H144.57L151.562 563.768L220.041 529.529L220.141 529.489L254.42 460.91L322.899 426.671L322.999 426.631L357.279 358.052L425.757 323.813L425.858 323.773L460.137 255.214L528.616 220.974L528.716 220.934L562.995 152.355L576.979 145.363V144.682L562.615 151.855L562.514 151.895L562.554 151.875ZM528.275 117.595L493.996 186.174L425.517 220.413L425.417 220.453L391.137 289.032L322.659 323.272L322.559 323.312L288.279 391.891L219.8 426.13L219.7 426.17L185.421 494.749L116.942 528.988L116.842 529.028L92.4798 577.753H93.161L117.303 529.489L185.781 495.25L185.882 495.21L220.161 426.631L288.64 392.391L288.74 392.351L323.019 323.773L391.498 289.533L391.598 289.493L425.878 220.914L494.356 186.675L494.456 186.635L528.736 118.056L577.019 93.9142V93.233L528.375 117.555L528.275 117.595ZM502.651 91.8306L502.55 91.8706L468.271 160.449L399.792 194.689L399.692 194.729L365.413 263.308L296.934 297.547L296.834 297.587L262.555 366.166L194.076 400.405L193.976 400.445L159.696 469.024L91.2176 503.264L91.1174 503.304L56.838 571.882L45.0777 577.753H46.4601L57.1987 572.383L57.2988 572.343L91.5782 503.764L160.057 469.525L160.157 469.485L194.436 400.906L262.915 366.667L263.015 366.627L297.295 298.048L365.773 263.809L365.874 263.769L400.153 195.19L468.632 160.95L468.732 160.91L503.011 92.3314L571.49 58.0921L571.59 58.052L576.999 47.2132V45.8308L571.129 57.5912L502.651 91.8306ZM536.85 126.17L502.57 194.749L434.092 228.988L433.992 229.028L399.712 297.607L331.234 331.846L331.133 331.887L296.854 400.465L228.375 434.705L228.275 434.745L193.996 503.324L125.517 537.563L125.417 537.603L105.342 577.773H106.023L125.878 538.064L194.356 503.825L194.457 503.784L228.736 435.206L297.215 400.966L297.315 400.926L331.594 332.367L400.073 298.128L400.173 298.088L434.452 229.509L502.931 195.27L503.031 195.23L537.311 126.651L577.019 106.797V106.115L536.95 126.15L536.85 126.19V126.17ZM554 349.016L519.72 417.595L451.242 451.834L451.141 451.874L416.862 520.453L348.383 554.693L348.283 554.733L336.763 577.753H337.444L348.724 555.193L417.203 520.954L417.303 520.914L451.582 452.335L520.061 418.096L520.161 418.056L554.44 349.477L576.999 338.197V337.516L554.08 348.976L553.98 349.016H554ZM562.574 49.0164L494.096 83.2557L493.996 83.2958L459.716 151.875L391.238 186.114L391.137 186.154L356.858 254.733L288.379 288.972L288.279 289.012L254 357.591L185.521 391.83L185.421 391.871L151.141 460.449L82.6628 494.689L82.5626 494.729L48.2832 563.308L19.3932 577.753H20.7755L48.6639 563.808L48.764 563.768L83.0434 495.19L151.522 460.95L151.622 460.91L185.902 392.331L254.38 358.092L254.481 358.052L288.76 289.473L357.239 255.234L357.339 255.194L391.618 186.615L460.097 152.375L460.197 152.335L494.476 83.7566L562.955 49.5172L563.055 49.4772L577.039 21.5087V20.1263L562.594 49.0164H562.574ZM545.425 134.725L511.145 203.304L442.667 237.543L442.566 237.583L408.287 306.162L339.808 340.401L339.708 340.441L305.429 409.02L236.95 443.26L236.85 443.3L202.571 511.878L134.092 546.118L133.992 546.158L118.204 577.753H118.886L134.453 546.619L202.931 512.379L203.031 512.339L237.311 443.76L305.789 409.521L305.89 409.481L340.169 340.902L408.648 306.663L408.748 306.623L443.027 238.044L511.506 203.805L511.606 203.765L545.885 135.186L577.019 119.619V118.938L545.525 134.685L545.425 134.725ZM528.275 529.008L503.913 577.733H504.594L528.736 529.469L577.019 505.327V504.646L528.375 528.968L528.275 529.008ZM536.85 537.583L516.775 577.753H517.456L537.311 538.044L577.019 518.189V517.508L536.95 537.543L536.85 537.583ZM511.145 511.878L478.208 577.753H478.889L511.606 512.339L577.019 479.643V478.961L511.225 511.858L511.125 511.899L511.145 511.878ZM545.425 546.158L529.637 577.753H530.319L545.885 546.619L577.019 531.052V530.37L545.525 546.118L545.425 546.158ZM502.651 503.264L502.55 503.304L468.271 571.882L456.511 577.753H457.893L468.632 572.383L468.732 572.343L503.011 503.764L571.49 469.525L571.59 469.485L576.999 458.646V457.264L571.129 469.024L502.651 503.264ZM571.129 571.882L568.184 577.753H568.865L571.57 572.343L576.979 569.639V568.957L571.189 571.842L571.089 571.882H571.129ZM562.554 563.308L555.322 577.753H556.003L562.995 563.768L576.979 556.776V556.095L562.615 563.267L562.514 563.308H562.554ZM545.405 340.461L511.125 409.04L442.647 443.28L442.546 443.32L408.267 511.899L339.788 546.138L339.688 546.178L323.901 577.773H324.582L340.149 546.639L408.628 512.399L408.728 512.359L443.007 443.78L511.486 409.541L511.586 409.501L545.865 340.922L576.999 325.355V324.674L545.505 340.421L545.405 340.461ZM553.98 554.753L542.48 577.773H543.161L554.44 555.214L576.999 543.934V543.253L554.08 554.713L553.98 554.753ZM494.076 494.709L493.976 494.749L459.696 563.328L430.806 577.773H432.189L460.077 563.828L460.177 563.788L494.456 495.21L562.935 460.97L563.035 460.93L577.019 432.962V431.579L562.574 460.469L494.096 494.709H494.076ZM519.7 314.757L485.421 383.336L416.942 417.575L416.842 417.615L382.563 486.194L314.084 520.433L313.984 520.473L285.334 577.773H286.015L314.444 520.934L382.923 486.695L383.023 486.655L417.303 418.076L485.781 383.837L485.882 383.797L520.161 315.218L576.999 286.788V286.107L519.78 314.717L519.68 314.757H519.7ZM536.85 331.907L502.57 400.485L434.092 434.725L433.992 434.765L399.712 503.344L331.234 537.583L331.133 537.623L311.059 577.793H311.74L331.594 538.084L400.073 503.845L400.173 503.804L434.452 435.226L502.931 400.986L503.031 400.946L537.311 332.367L577.019 312.513V311.832L536.95 331.867L536.85 331.907ZM528.275 323.332L493.996 391.911L425.517 426.15L425.417 426.19L391.137 494.769L322.659 529.008L322.559 529.048L298.196 577.773H298.877L323.019 529.509L391.498 495.27L391.598 495.23L425.878 426.651L494.356 392.411L494.456 392.371L528.736 323.793L577.019 299.651V298.97L528.375 323.292L528.275 323.332ZM511.125 306.182L476.846 374.761L408.367 409L408.267 409.04L373.988 477.619L305.509 511.858L305.409 511.899L272.472 577.773H273.153L305.85 512.359L374.328 478.12L374.428 478.08L408.708 409.501L477.186 375.262L477.287 375.222L511.566 306.643L576.979 273.926V273.245L511.185 306.142L511.085 306.182H511.125ZM485.501 486.134L485.401 486.174L451.121 554.753L405.082 577.773H406.464L451.482 555.254L451.582 555.214L485.862 486.635L554.34 452.395L554.44 452.355L576.999 407.237V405.855L553.98 451.895L485.501 486.134ZM476.926 477.559L476.826 477.599L442.546 546.178L379.377 577.773H380.759L442.927 546.699L443.027 546.659L477.307 478.08L545.785 443.841L545.885 443.8L577.019 381.533V380.15L545.425 443.34L476.946 477.579L476.926 477.559ZM519.7 520.453L491.051 577.753H491.732L520.161 520.914L576.999 492.485V491.804L519.78 520.413L519.68 520.453H519.7ZM40.1692 246.619L108.648 212.379L108.748 212.339L143.027 143.761L211.506 109.521L211.606 109.481L245.886 40.9023L314.344 6.68301L314.444 6.64294L317.39 0.772766L316.708 0.772766L314.004 6.20217L245.525 40.4415L245.425 40.4816L211.145 109.06L142.667 143.3L142.567 143.34L108.287 211.919L39.8085 246.158L39.7084 246.198L5.40892 314.737L-0.000457909 317.442L-0.000457909 318.123L5.86971 315.178L40.1491 246.599L40.1692 246.619ZM23.0194 332.327L57.2988 263.748L125.778 229.509L125.878 229.469L160.157 160.89L228.636 126.651L228.736 126.611L263.015 58.032L331.494 23.7927L331.594 23.7526L343.114 0.732696L342.433 0.732696L331.153 23.2918L262.675 57.5311L262.575 57.5712L228.295 126.15L159.816 160.389L159.716 160.429L125.437 229.008L56.9582 263.248L56.8581 263.288L22.5787 331.867L0.0195768 343.146L0.0195768 343.827L22.9393 332.367L23.0395 332.327H23.0194ZM82.9232 392.371L83.0234 392.331L117.303 323.752L185.781 289.513L185.882 289.473L220.161 220.894L288.64 186.655L288.74 186.615L323.019 118.036L391.498 83.7966L391.598 83.7566L425.878 15.1777L454.788 0.732696L453.405 0.732696L425.517 14.6769L425.417 14.7169L391.137 83.2958L322.659 117.535L322.559 117.575L288.279 186.154L219.8 220.393L219.7 220.433L185.421 288.992L116.942 323.232L116.842 323.272L82.5626 391.85L14.084 426.09L13.9838 426.13L-0.000457909 454.118L-0.000457909 455.501L14.4446 426.611L82.9232 392.371ZM74.3484 383.797L74.4486 383.756L108.728 315.178L177.207 280.938L177.307 280.898L211.586 212.319L280.065 178.08L280.165 178.04L314.444 109.461L382.923 75.2218L383.023 75.1817L417.303 6.6229L429.063 0.752731L427.681 0.752731L416.942 6.12204L416.842 6.16211L382.562 74.741L314.084 108.98L313.984 109.02L279.704 177.599L211.226 211.839L211.125 211.879L176.846 280.457L108.367 314.697L108.267 314.737L73.9878 383.316L5.50909 417.555L5.40892 417.595L-0.000457909 428.434L-0.000457909 429.816L5.86971 418.056L74.3484 383.817V383.797ZM17.6301 0.752731L16.2477 0.752731L5.50909 6.12204L5.40892 6.16211L-0.000457909 17.0009L-0.000457909 18.3833L5.86971 6.6229L17.6301 0.752731ZM48.724 358.052L83.0034 289.473L151.482 255.234L151.582 255.194L185.862 186.615L254.34 152.375L254.44 152.335L288.72 83.7566L357.199 49.5172L357.299 49.4772L381.661 0.752731L380.98 0.752731L356.838 49.0364L288.359 83.2757L288.259 83.3158L253.98 151.895L185.501 186.134L185.401 186.174L151.121 254.753L82.6428 288.992L82.5426 289.032L48.2632 357.611L-0.000457909 381.733L-0.000457909 382.414L48.6438 358.092L48.744 358.052H48.724ZM40.1491 349.477L74.4285 280.898L142.907 246.659L143.007 246.619L177.287 178.04L245.765 143.801L245.866 143.761L280.145 75.1817L348.624 40.9424L348.724 40.9023L368.819 0.752731L368.138 0.752731L348.283 40.4615L279.804 74.7009L279.704 74.741L245.425 143.32L176.946 177.559L176.846 177.599L142.567 246.178L74.0879 280.417L73.9878 280.457L39.7084 349.036L-0.000457909 368.871L-0.000457909 369.552L40.069 349.517L40.1692 349.477H40.1491ZM31.5743 340.902L65.8537 272.323L134.332 238.084L134.432 238.044L168.712 169.465L237.191 135.226L237.291 135.186L271.57 66.6068L340.049 32.3675L340.149 32.3274L355.936 0.732696L355.255 0.732696L339.688 31.8666L271.21 66.106L271.109 66.146L236.83 134.725L168.351 168.964L168.251 169.004L133.972 237.583L65.493 271.822L65.3929 271.863L31.1135 340.441L-0.0204926 356.008L-0.0204926 356.69L31.4741 340.942L31.5743 340.902ZM22.9994 538.044L57.2788 469.465L125.757 435.226L125.858 435.186L160.137 366.607L228.616 332.367L228.716 332.327L262.995 263.748L331.474 229.509L331.574 229.469L365.854 160.89L434.332 126.651L434.432 126.611L468.712 58.032L537.19 23.7927L537.291 23.7526L548.811 0.732696L548.129 0.732696L536.85 23.2918L468.371 57.5311L468.271 57.5712L433.992 126.15L365.513 160.389L365.413 160.429L331.133 229.008L262.655 263.248L262.555 263.288L228.275 331.867L159.796 366.106L159.696 366.146L125.417 434.725L56.9382 468.964L56.838 469.004L22.5586 537.583L-0.000457909 548.863L-0.000457909 549.544L22.9193 538.084L23.0194 538.044H22.9994ZM14.4245 529.469L48.7039 460.89L117.183 426.651L117.283 426.611L151.562 358.032L220.041 323.793L220.141 323.752L254.42 255.174L322.899 220.934L322.999 220.894L357.279 152.315L425.757 118.076L425.858 118.036L460.137 49.4571L528.616 15.2178L528.716 15.1777L535.948 0.732696L535.267 0.732696L528.275 14.7169L459.796 48.9563L459.696 48.9963L425.417 117.575L356.938 151.814L356.838 151.855L322.559 220.433L254.08 254.673L253.98 254.713L219.7 323.292L151.222 357.531L151.121 357.571L116.842 426.15L48.3634 460.389L48.2632 460.429L13.9838 529.008L-0.000457909 536L-0.000457909 536.681L14.3644 529.509L14.4646 529.469H14.4245ZM40.1291 452.335L108.608 418.096L108.708 418.056L142.987 349.477L211.466 315.238L211.566 315.198L245.846 246.619L314.324 212.379L314.424 212.339L348.704 143.761L417.182 109.521L417.283 109.481L451.562 40.9023L520.041 6.66297L520.141 6.6229L523.086 0.752731L522.405 0.752731L519.7 6.18214L451.221 40.4215L451.121 40.4615L416.842 109.04L348.363 143.28L348.263 143.32L313.984 211.899L245.505 246.138L245.405 246.178L211.125 314.737L142.647 348.976L142.547 349.016L108.267 417.595L39.7885 451.834L39.6883 451.874L5.40892 520.453L-0.000457909 523.158L-0.000457909 523.839L5.86971 520.894L40.1491 452.315L40.1291 452.335ZM91.458 400.946L91.5582 400.906L125.838 332.347L194.316 298.108L194.416 298.068L228.696 229.489L297.175 195.25L297.275 195.21L331.554 126.631L400.033 92.3915L400.133 92.3515L434.412 23.7726L480.492 0.752731L479.11 0.752731L434.072 23.2718L433.972 23.3118L399.692 91.8907L331.214 126.13L331.113 126.17L296.834 194.749L228.355 228.988L228.255 229.028L193.976 297.607L125.497 331.846L125.397 331.887L91.1174 400.465L22.6388 434.705L22.5386 434.745L-0.000457909 479.863L-0.000457909 481.245L23.0194 435.206L91.4981 400.966L91.458 400.946ZM40.1291 555.173L74.4085 486.595L142.887 452.355L142.987 452.315L177.267 383.736L245.745 349.497L245.846 349.457L280.125 280.878L348.604 246.639L348.704 246.599L382.983 178.02L451.462 143.781L451.562 143.741L485.841 75.1617L554.32 40.9223L554.42 40.8823L574.495 0.712662L573.814 0.712662L553.959 40.4215L485.481 74.6608L485.381 74.7009L451.101 143.28L382.623 177.519L382.522 177.559L348.243 246.138L279.764 280.377L279.664 280.417L245.385 348.996L176.906 383.236L176.806 383.276L142.527 451.854L74.0479 486.094L73.9477 486.134L39.6683 554.713L-0.0405273 574.567L-0.0405273 575.248L40.0289 555.214L40.1291 555.173ZM100.033 409.501L100.133 409.461L134.412 340.882L202.891 306.643L202.991 306.603L237.271 238.024L305.749 203.785L305.85 203.744L340.129 135.166L408.608 100.926L408.708 100.886L442.987 32.3074L506.197 0.752731L504.814 0.752731L442.647 31.8466L442.546 31.8867L408.267 100.466L339.788 134.705L339.688 134.745L305.409 203.324L236.93 237.563L236.83 237.603L202.551 306.182L134.072 340.421L133.972 340.461L99.6923 409.04L31.2136 443.28L31.1135 443.32L-0.000457909 505.568L-0.000457909 506.95L31.5943 443.76L100.073 409.521L100.033 409.501ZM57.2588 366.607L91.5382 298.028L160.017 263.789L160.117 263.748L194.396 195.17L262.875 160.93L262.975 160.89L297.255 92.3114L365.733 58.0721L365.834 58.032L394.523 0.752731L393.842 0.752731L365.413 57.5912L296.934 91.8306L296.834 91.8706L262.555 160.449L194.076 194.689L193.976 194.729L159.696 263.308L91.2176 297.547L91.1174 297.587L56.838 366.166L-0.000457909 394.595L-0.000457909 395.276L57.2187 366.667L57.3189 366.627L57.2588 366.607ZM31.5542 546.599L65.8336 478.02L134.312 443.78L134.412 443.74L168.692 375.162L237.171 340.922L237.271 340.882L271.55 272.303L340.029 238.064L340.129 238.024L374.408 169.445L442.887 135.206L442.987 135.166L477.267 66.5868L545.745 32.3475L545.845 32.3074L561.653 0.712662L560.972 0.712662L545.405 31.8466L476.926 66.086L476.826 66.126L442.546 134.705L374.068 168.944L373.968 168.984L339.688 237.563L271.21 271.802L271.109 271.843L236.83 340.421L168.351 374.661L168.251 374.701L133.972 443.28L65.493 477.519L65.3929 477.559L31.1135 546.138L-0.0204926 561.705L-0.0204926 562.386L31.4741 546.639L31.5743 546.599H31.5542ZM14.4045 323.752L48.6839 255.174L117.163 220.934L117.263 220.894L151.542 152.315L220.021 118.076L220.121 118.036L254.4 49.4571L322.879 15.2178L322.979 15.1777L330.212 0.732696L329.531 0.732696L322.538 14.7169L254.06 48.9563L253.96 48.9963L219.68 117.575L151.202 151.814L151.101 151.855L116.822 220.433L48.3433 254.673L48.2431 254.713L13.9637 323.292L-0.0204926 330.284L-0.0204926 330.965L14.3444 323.793L14.4446 323.752H14.4045ZM31.5542 135.186L65.8336 66.6068L134.312 32.3675L134.412 32.3274L150.2 0.732696L149.519 0.732696L133.952 31.8666L65.473 66.106L65.3728 66.146L31.0934 134.725L-0.0405273 150.292L-0.0405273 150.973L31.4541 135.226L31.5542 135.186ZM48.7039 152.335L82.9833 83.7566L151.462 49.5172L151.562 49.4772L175.964 0.752731L175.283 0.752731L151.141 49.0364L82.6628 83.2757L82.5626 83.3158L48.2832 151.895L-0.000457909 176.016L-0.000457909 176.698L48.6438 152.375L48.744 152.335H48.7039ZM57.2788 160.91L91.5582 92.3314L160.037 58.0921L160.137 58.052L188.807 0.752731L188.126 0.752731L159.696 57.5912L91.2176 91.8306L91.1174 91.8706L56.838 160.449L-0.000457909 188.879L-0.000457909 189.56L57.2187 160.95L57.3189 160.91H57.2788ZM40.1291 143.761L74.4085 75.1817L142.887 40.9424L142.987 40.9023L163.102 0.752731L162.421 0.752731L142.567 40.4615L74.0879 74.7009L73.9878 74.741L39.7084 143.32L-0.000457909 163.174L-0.000457909 163.855L40.069 143.821L40.1692 143.781L40.1291 143.761ZM65.8336 169.465L100.113 100.886L168.592 66.6469L168.692 66.6068L201.669 0.752731L200.988 0.752731L168.271 66.1661L99.7925 100.405L99.6923 100.445L65.4129 169.024L-0.000457909 201.741L-0.000457909 202.422L65.7936 169.525L65.8937 169.485L65.8336 169.465ZM43.3547 0.752731L41.9723 0.752731L14.084 14.6969L13.9838 14.737L-0.000457909 42.7255L-0.000457909 44.1079L14.4446 15.1978L43.3547 0.752731ZM94.7838 0.752731L93.4014 0.752731L31.2136 31.8466L31.1135 31.8867L-0.000457909 94.1546L-0.000457909 95.537L31.5943 32.3475L94.7838 0.752731ZM69.0592 0.752731L67.6768 0.752731L22.6588 23.2718L22.5586 23.3118L-0.000457909 68.43L-0.000457909 69.8124L23.0194 23.7726L69.0592 0.752731ZM74.3484 178.1L74.4486 178.06L108.728 109.481L177.207 75.2418L177.307 75.2017L211.586 6.6229L223.347 0.752731L221.964 0.752731L211.226 6.12204L211.125 6.16211L176.846 74.741L108.367 108.98L108.267 109.02L73.9878 177.599L5.50909 211.839L5.40892 211.879L-0.000457909 222.717L-0.000457909 224.1L5.86971 212.339L74.3484 178.1ZM23.0194 126.631L57.2988 58.052L125.778 23.8127L125.878 23.7726L137.398 0.752731L136.716 0.752731L125.437 23.3118L56.9382 57.5512L56.838 57.5912L22.5586 126.17L-0.000457909 137.45L-0.000457909 138.131L22.9193 126.671L23.0194 126.631ZM100.073 203.825L100.173 203.785L134.453 135.206L202.931 100.966L203.031 100.926L237.311 32.3475L300.48 0.752731L299.098 0.752731L236.93 31.8466L236.83 31.8867L202.551 100.466L134.072 134.705L133.972 134.745L99.6923 203.324L31.2136 237.563L31.1135 237.603L-0.000457909 299.851L-0.000457909 301.233L31.5943 238.044L100.073 203.805V203.825ZM82.9232 186.675L83.0234 186.635L117.303 118.056L185.781 83.8167L185.882 83.7766L220.161 15.1978L249.071 0.752731L247.689 0.752731L219.8 14.6969L219.7 14.737L185.421 83.3158L116.942 117.555L116.842 117.595L82.5626 186.174L14.084 220.413L13.9838 220.453L-0.000457909 248.442L-0.000457909 249.824L14.4446 220.934L82.9232 186.695V186.675ZM91.4981 195.25L91.5983 195.21L125.878 126.631L194.356 92.3915L194.457 92.3515L228.736 23.7726L274.776 0.752731L273.393 0.752731L228.355 23.2718L228.255 23.3118L193.976 91.8907L125.497 126.13L125.397 126.17L91.1174 194.749L22.6388 228.988L22.5386 229.028L-0.000457909 274.147L-0.000457909 275.529L23.0194 229.489L91.4981 195.25ZM14.4446 118.056L48.724 49.4972L117.203 15.2579L117.303 15.2178L124.535 0.772766L123.854 0.772766L116.862 14.757L48.3634 48.9763L48.2632 49.0164L13.9838 117.595L-0.000457909 124.587L-0.000457909 125.269L14.3644 118.096L14.4646 118.056H14.4446ZM40.1491 40.9223L108.648 6.68301L108.748 6.64294L111.693 0.772766L111.012 0.772766L108.307 6.20217L39.7885 40.4014L39.6883 40.4415L5.40892 109.02L-0.000457909 111.725L-0.000457909 112.406L5.86971 109.461L40.1692 40.9223H40.1491ZM65.8537 375.202L100.133 306.623L168.612 272.383L168.712 272.343L202.991 203.765L271.47 169.525L271.57 169.485L305.85 100.906L374.328 66.667L374.428 66.6269L407.385 0.752731L406.704 0.752731L373.988 66.1661L305.509 100.405L305.409 100.445L271.129 169.024L202.651 203.264L202.551 203.304L168.271 271.883L99.7925 306.122L99.6923 306.162L65.4129 374.741L-0.000457909 407.438L-0.000457909 408.119L65.7936 375.222L65.8937 375.182L65.8537 375.202Z" fill="url(#paint0_linear_2541_4340)"/>
<rect x="0.502441" y="0.753174" width="577.04" height="577.04" fill="url(#paint1_linear_2541_4340)"/>
</g>
<defs>
<linearGradient id="paint0_linear_2541_4340" x1="288.499" y1="577.793" x2="288.499" y2="0.712662" gradientUnits="userSpaceOnUse">
<stop stop-color="#3b2048"/>
<stop offset="1" stop-color="#702283"/>
</linearGradient>
<linearGradient id="paint1_linear_2541_4340" x1="0.502441" y1="0.753174" x2="577.582" y2="577.753" gradientUnits="userSpaceOnUse">
<stop stop-color="#E6F3FF" stop-opacity="0"/>
<stop offset="0.5" stop-color="#E6F3FF"/>
</linearGradient>
<clipPath id="clip0_2541_4340">
<rect width="577" height="577" fill="white" transform="translate(0 0.753174)"/>
</clipPath>
</defs>
</svg>
